<svg width="137" height="128" viewBox="0 0 137 128" fill="none" xmlns="http://www.w3.org/2000/svg">
<path d="M84.7983 63.8929C88.264 63.566 91.6568 62.0794 94.778 60.6282C97.7445 59.2498 101.181 57.6086 103.156 54.8939C103.772 54.0479 103.3 52.7358 102.463 52.2455C101.484 51.6734 100.43 52.0909 99.8142 52.9391C100.086 52.5636 99.6088 53.1511 99.5027 53.2571C99.3039 53.4537 99.0919 53.6393 98.8754 53.816C98.5883 54.0523 99.2465 53.5465 98.6921 53.9596C98.575 54.0479 98.4535 54.1341 98.332 54.218C98.0095 54.4433 97.6804 54.6598 97.3469 54.8696C95.9001 55.7775 94.3737 56.566 92.8253 57.2861C91.3653 57.9643 89.8743 58.5695 88.3501 59.0864C87.6521 59.3227 86.9453 59.5436 86.2318 59.7269C85.9115 59.8087 85.5912 59.886 85.2665 59.9478C85.1495 59.9699 85.0324 59.992 84.9153 60.0119C84.3653 60.1047 85.3041 59.9743 84.7983 60.0229C83.7579 60.1223 82.8633 60.8424 82.8633 61.9579C82.8633 62.9276 83.7513 63.9901 84.7983 63.8929Z" fill="black"/>
<path d="M37.1643 80.2364C35.8501 86.2689 33.5506 92.2063 29.325 96.8184C25.1613 101.362 19.7186 104.653 13.7679 106.25C9.89797 107.289 5.90874 107.545 1.93498 107.039C0.896806 106.906 0 108.024 0 108.974C0 110.129 0.894597 110.776 1.93498 110.909C16.0276 112.702 30.7741 104.841 37.1489 92.1533C38.8806 88.7075 40.0778 85.0253 40.8973 81.2635C41.4275 78.8382 37.6967 77.8 37.1643 80.2364Z" fill="black"/>
<path d="M63.688 33.5848C52.8778 39.0364 45.2152 49.3165 41.1796 60.5442C40.8262 61.5271 41.5794 62.6625 42.5314 62.9253C43.6049 63.2213 44.557 62.5609 44.9126 61.5735C48.6213 51.2581 55.7405 41.9211 65.6429 36.9269C67.8672 35.8048 65.9102 32.4649 63.688 33.5848Z" fill="black"/>
<path d="M1.21647 110.765C5.99648 114.047 11.4502 116.278 17.3368 115.828C22.5167 115.43 27.4402 113.436 31.7122 110.522C40.7841 104.335 46.9976 94.8787 50.5915 84.6251C52.7606 78.4359 53.9909 71.9837 54.817 65.4918C54.9496 64.4537 53.8319 63.5569 52.8821 63.5569C51.7268 63.5569 51.0796 64.4515 50.9471 65.4918C49.6174 75.9376 46.9358 86.5027 41.0977 95.3934C36.0858 103.029 28.3834 110.067 19.1327 111.728C13.2637 112.782 7.96679 110.714 3.17353 107.423C1.11265 106.009 -0.826741 109.362 1.21647 110.765Z" fill="black"/>
<path d="M51.0888 66.0067C52.6748 71.2373 57.3819 76.2007 62.8113 77.4045C65.2389 77.9435 66.2748 74.2105 63.8406 73.6715C59.7145 72.757 56.0323 68.9754 54.8218 64.9774C54.1017 62.6006 50.3643 63.6123 51.0888 66.0067Z" fill="black"/>
<path d="M61.756 69.3511C65.0958 78.1358 62.9598 87.9675 56.1454 94.466C54.3386 96.1889 57.0798 98.9235 58.8822 97.2028C66.6111 89.834 69.2927 78.3279 65.489 68.3217C65.1179 67.3454 64.1835 66.6739 63.1078 66.9699C62.1712 67.2283 61.3827 68.3703 61.756 69.3511Z" fill="black"/>
<path d="M56.0417 97.673C61.7715 104.251 63.9981 113.25 62.4497 121.772C62.0432 124.007 62.125 126.881 64.6873 127.773C67.6096 128.792 69.5887 126.185 70.5319 123.797C72.3874 119.101 71.0665 113.868 69.6572 109.247C68.2325 104.574 66.8807 99.9062 69.0144 95.2189C70.9074 91.0596 74.1368 87.6999 76.9333 84.1502C83.1358 76.2778 88.859 66.4925 86.628 56.0666C85.6119 51.3219 82.5306 46.7186 78.104 44.5517C73.3438 42.2214 67.5831 42.7338 63.5519 46.257C62.6065 47.0831 62.7059 48.6978 63.5519 49.5416C64.4907 50.4804 65.8889 50.3699 66.8365 49.5416C69.3612 47.3349 73.3173 47.2267 76.1933 48.7861C79.4028 50.5267 81.3974 53.8003 82.1484 57.3014C84.0061 65.9447 78.6451 74.5438 73.5294 81.0136C70.8787 84.3645 67.9166 87.5453 65.8138 91.2893C63.4591 95.4862 62.7302 99.9194 63.6159 104.651C64.4465 109.093 66.5604 113.301 66.768 117.858C66.8078 118.732 66.8034 119.631 66.6487 120.495C66.5648 120.966 66.4411 121.429 66.2975 121.884C66.1937 122.214 65.6238 123.009 65.6503 123.28C65.6503 123.28 65.5421 123.4 65.5509 123.422C65.3565 122.967 66.9337 123.886 66.8144 123.866C67.0375 123.901 66.6929 124.235 66.863 123.917C66.9293 123.791 66.8608 123.508 66.874 123.353C66.9271 122.702 67.2032 121.491 67.3158 120.634C68.5705 111.205 65.5576 101.543 59.3241 94.3862C58.5002 93.4408 56.8833 93.5424 56.0395 94.3862C55.1029 95.3272 55.2156 96.7254 56.0417 97.673Z" fill="black"/>
<path d="M77.105 124.211C78.9958 124.211 80.8048 122.55 80.7187 120.597C80.6303 118.64 79.1305 116.983 77.105 116.983C75.2142 116.983 73.4051 118.644 73.4912 120.597C73.5796 122.554 75.0794 124.211 77.105 124.211Z" fill="black"/>
<path d="M91.4013 59.8814C91.5427 63.1307 90.1114 67.0757 88.0416 69.5077C85.1635 72.8917 81.415 75.3921 78.3138 78.5553C75.1197 81.8133 72.7054 85.6568 72.151 90.2535C71.5723 95.06 73.1118 99.8267 74.6536 104.315C76.2551 108.971 78.0619 114.036 76.4207 118.929C75.9547 120.316 76.9575 121.889 78.3138 122.262C79.7937 122.669 81.1809 121.763 81.6469 120.369C83.2307 115.647 82.3449 110.593 80.9025 105.954C79.5507 101.605 77.5274 97.2401 77.4435 92.6147C77.2778 83.4413 86.9527 79.2731 92.0662 73.1126C95.0394 69.5298 97.0229 64.5841 96.8197 59.8858C96.7556 58.4236 95.6203 57.1755 94.1094 57.1755C92.6913 57.1711 91.3351 58.4125 91.4013 59.8814Z" fill="black"/>
<path d="M67.336 91.2388C67.9081 96.4385 70.3886 100.854 72.6549 105.471C74.4552 109.135 76.357 113.882 74.4861 117.896C73.8676 119.221 74.1128 120.816 75.458 121.602C76.6309 122.289 78.5438 121.962 79.1645 120.63C81.5876 115.433 80.5494 109.959 78.3384 104.887C76.4012 100.448 73.2955 96.1668 72.7543 91.2388C72.5953 89.7832 71.6234 88.5286 70.044 88.5286C68.7055 88.5308 67.1747 89.7744 67.336 91.2388Z" fill="black"/>
<path d="M110.256 73.9455C112.557 72.777 114.647 71.1159 116.277 69.1102C117.382 67.7518 117.706 65.6777 116.277 64.3656C115.051 63.2413 112.714 62.9121 111.532 64.3656C110.03 66.2122 108.913 67.1134 106.869 68.1516C105.301 68.9468 104.725 71.2816 105.666 72.7416C106.699 74.3431 108.579 74.7981 110.256 73.9455Z" fill="black"/>
<path d="M114.319 66.2098C115.03 63.5436 114.199 60.8775 112.532 58.7504C110.857 56.6144 108.45 55.3178 106.086 54.0808C104.098 53.0426 101.803 51.9316 100.628 49.9171C99.8749 48.6249 99.7998 46.6745 101.158 45.8881C103.599 44.4722 101.392 40.6796 98.9449 42.0999C96.7184 43.3921 95.5455 45.9544 95.731 48.4946C95.9431 51.4125 97.6616 53.7362 99.9279 55.468C102.139 57.1556 104.748 58.1429 107.06 59.6627C108.799 60.8046 110.69 62.786 110.087 65.0457C109.36 67.7759 113.59 68.9399 114.319 66.2098Z" fill="black"/>
<path d="M109.452 67.1157C109.419 67.2813 109.386 67.447 109.353 67.6126C109.262 67.9042 109.249 68.1958 109.313 68.4874C109.326 68.7789 109.413 69.0506 109.574 69.3024C109.711 69.5587 109.901 69.7641 110.139 69.9187C110.351 70.1131 110.599 70.2434 110.886 70.3119C111.08 70.3384 111.275 70.3649 111.469 70.3892C111.864 70.387 112.233 70.2876 112.576 70.0888C112.724 69.9739 112.872 69.8591 113.02 69.7464C113.291 69.4725 113.479 69.15 113.583 68.7789C113.616 68.6133 113.649 68.4476 113.682 68.2819C113.773 67.9904 113.786 67.6988 113.722 67.4072C113.709 67.1157 113.623 66.844 113.462 66.5921C113.325 66.3359 113.135 66.1305 112.896 65.9759C112.684 65.7815 112.437 65.6512 112.149 65.5827C111.955 65.5562 111.761 65.5297 111.566 65.5054C111.171 65.5076 110.802 65.607 110.46 65.8058C110.312 65.9206 110.164 66.0355 110.016 66.1482C109.746 66.4199 109.558 66.7424 109.452 67.1157Z" fill="black"/>
<path d="M109.925 65.8742C109.794 66.4795 109.664 67.0847 109.534 67.6921C109.293 68.812 109.865 70.1175 111.067 70.3914C112.171 70.6432 113.507 70.0601 113.766 68.8584C113.896 68.2532 114.026 67.648 114.157 67.0405C114.398 65.9206 113.825 64.6152 112.624 64.3413C111.517 64.0917 110.181 64.6748 109.925 65.8742Z" fill="black"/>
<path d="M109.827 41.9278C106.092 44.4835 107.229 49.2524 109.571 52.3404C110.914 54.1119 112.632 55.6537 113.613 57.6749C114.625 59.76 114.6 62.1324 113.807 64.2794C113.231 65.8389 115.725 66.5126 116.297 64.9664C117.783 60.9462 116.652 56.9459 114.046 53.7055C112.796 52.1505 111.291 50.7302 110.443 48.8924C109.756 47.4014 109.599 45.2058 111.13 44.1566C112.493 43.2244 111.203 40.9868 109.827 41.9278Z" fill="black"/>
<path d="M114.612 44.1344C113.534 45.8087 112.081 47.1583 110.376 48.1788C108.098 49.5417 110.172 53.1134 112.458 51.7439C114.776 50.3568 116.715 48.4881 118.175 46.2173C119.622 43.9775 116.048 41.9034 114.612 44.1344Z" fill="black"/>
<path d="M112.314 49.6123C114.26 52.2961 115.42 55.4415 115.504 58.7703C115.572 61.4916 115.122 65.1915 112.577 66.7642C110.322 68.1602 112.392 71.732 114.66 70.3294C118.325 68.063 119.575 63.5702 119.637 59.486C119.701 55.2427 118.369 50.9641 115.879 47.5271C115.226 46.6259 114.084 46.1841 113.054 46.7872C112.164 47.3085 111.656 48.7045 112.314 49.6123Z" fill="black"/>
<path d="M74.3901 34.1528C77.0474 34.1528 77.0518 30.0244 74.3901 30.0244C71.7328 30.0244 71.7284 34.1528 74.3901 34.1528Z" fill="black"/>
<path d="M40.9969 72.9602C43.6541 72.9602 43.6586 68.8318 40.9969 68.8318C38.3418 68.8296 38.3374 72.9602 40.9969 72.9602Z" fill="black"/>
<path d="M97.2394 1.58486C95.8589 9.45509 100.694 17.2701 108.549 19.194C111.233 19.8523 112.377 15.7128 109.691 15.0546C104.261 13.7248 100.394 8.35065 101.381 2.72686C101.582 1.58708 101.074 0.414161 99.8812 0.0872476C98.8453 -0.197697 97.4404 0.438459 97.2394 1.58486Z" fill="black"/>
<path d="M99.3091 4.3018C102.472 4.61767 106.128 6.5659 107.705 9.39547C109.05 11.8098 112.759 9.64727 111.412 7.22856C109.059 3.00739 103.983 0.473817 99.3091 0.00774442C98.1539 -0.107117 97.1621 1.07684 97.1621 2.15477C97.1643 3.41162 98.1517 4.18693 99.3091 4.3018Z" fill="black"/>
<path d="M109.017 4.65736C109.231 4.30173 109.443 3.9461 109.657 3.59047C110.077 2.89026 109.836 1.84547 109.096 1.45449C108.341 1.05469 107.409 1.26674 106.96 2.01555C106.746 2.37118 106.534 2.72681 106.32 3.08243C105.9 3.78265 106.141 4.82745 106.881 5.21842C107.636 5.61823 108.568 5.40617 109.017 4.65736Z" fill="black"/>
<path d="M107.632 4.23111C111.643 6.23235 115.27 10.1995 116.139 14.6857C116.521 16.656 119.529 15.8211 119.149 13.8552C118.142 8.65106 113.872 3.86222 109.207 1.53406C107.416 0.639469 105.832 3.33209 107.632 4.23111Z" fill="black"/>
<path d="M118.257 45.8397C120.793 41.6893 121.418 36.5934 119.92 31.9592C119.149 29.5802 115.381 30.5985 116.156 32.9973C117.351 36.6884 116.912 40.5539 114.888 43.8694C113.574 46.0187 116.949 47.9824 118.257 45.8397Z" fill="black"/>
<path d="M119.905 32.929C120.238 31.3916 122.876 31.5993 124.013 31.6655C126.22 31.7937 128.371 32.2089 130.576 31.787C134.364 31.0647 137.803 26.9695 135.413 23.1724C134.382 21.5312 132.683 20.7427 131 19.9408C130.187 19.5543 129.396 19.1611 128.82 18.4476C128.287 17.7872 127.903 17.0074 127.406 16.3183C125.142 13.175 121.296 11.7592 117.524 12.5786C115.07 13.111 116.108 16.8749 118.562 16.3426C119.83 16.0665 121.193 16.2564 122.332 16.8838C123.675 17.6215 124.32 18.7657 125.153 19.9961C126.165 21.4937 127.397 22.5341 129.03 23.3094C129.991 23.7666 131.948 24.3431 132.239 25.5514C132.529 26.753 131.19 27.5902 130.22 27.8641C128.482 28.3566 126.609 27.9833 124.846 27.8265C121.626 27.5394 116.98 28.0143 116.141 31.8886C115.611 34.3405 119.372 35.3875 119.905 32.929Z" fill="black"/>
<path d="M107.287 16.6672C104.786 20.5327 104.009 25.2155 104.95 29.704C105.464 32.1602 109.228 31.1198 108.714 28.6658C107.983 25.178 108.734 21.6129 110.658 18.6375C112.025 16.5214 108.647 14.5621 107.287 16.6672Z" fill="black"/>
<path d="M105.309 27.8704C104.014 29.4298 102.287 30.2537 100.299 30.5409C99.254 30.6911 98.6819 32.0164 98.9359 32.9419C99.2429 34.0618 100.29 34.455 101.337 34.3048C103.895 33.9359 106.411 32.6305 108.07 30.6315C108.743 29.8208 108.863 28.6656 108.07 27.8726C107.376 27.1768 105.984 27.0553 105.309 27.8704Z" fill="black"/>
<path d="M84.1208 31.6741C89.5082 31.4951 95.0326 32.1048 100.038 34.2032C101.01 34.6119 102.185 33.7637 102.439 32.8404C102.748 31.716 102.052 30.8502 101.076 30.4393C95.7925 28.2238 89.8109 27.581 84.123 27.771C81.6159 27.8549 81.6049 31.758 84.1208 31.6741Z" fill="black"/>
<path d="M74.8856 117.626C74.8812 117.823 74.8702 118.015 74.8481 118.209C74.8901 117.889 74.9342 117.569 74.9762 117.248C74.9166 117.639 74.8216 118.008 74.6824 118.379C74.8039 118.092 74.9254 117.805 75.0469 117.516C74.8658 117.942 74.6449 118.324 74.3644 118.693C73.8342 119.384 73.7812 120.683 73.9999 121.476C74.2296 122.313 74.879 123.223 75.661 123.636C76.5003 124.08 77.5142 124.301 78.4441 124.001C79.4006 123.692 79.997 123.13 80.6044 122.34C81.6205 121.014 82.0778 119.272 82.1109 117.624C82.1484 115.733 80.4211 113.924 78.4972 114.01C76.5092 114.103 74.9276 115.6 74.8856 117.626Z" fill="black"/>
</svg>
