<svg width="92" height="33" viewBox="0 0 92 33" fill="none" xmlns="http://www.w3.org/2000/svg">
<path d="M63.5 5C64.8807 5 66 3.88071 66 2.5C66 1.11929 64.8807 0 63.5 0C62.1193 0 61 1.11929 61 2.5C61 3.88071 62.1193 5 63.5 5Z" fill="black"/>
<path d="M74.5 27C75.8807 27 77 25.8807 77 24.5C77 23.1193 75.8807 22 74.5 22C73.1193 22 72 23.1193 72 24.5C72 25.8807 73.1193 27 74.5 27Z" fill="black"/>
<path d="M17.5 5C18.8807 5 20 3.88071 20 2.5C20 1.11929 18.8807 0 17.5 0C16.1193 0 15 1.11929 15 2.5C15 3.88071 16.1193 5 17.5 5Z" fill="black"/>
<path d="M22 23.9988C22.0011 24.2631 21.9441 24.5246 21.8326 24.7662C21.7212 25.0077 21.5578 25.2238 21.3533 25.4003C20.9212 25.7945 20.3355 25.9916 19.5962 25.9916C18.9004 25.9916 18.3367 25.8438 17.8974 25.5555C17.4459 25.2486 17.0678 24.8525 16.7884 24.3935C16.4812 23.9086 16.2124 23.469 15.982 23.0748L10.0807 14.1706L5.99349 18.0143V23.0097C5.99349 24.0209 5.75848 24.771 5.28847 25.2598C5.05888 25.5014 4.77783 25.6925 4.46452 25.8201C4.1512 25.9477 3.81298 26.0087 3.47293 25.999C3.03713 25.994 2.61035 25.8788 2.23537 25.665C1.86038 25.4512 1.55037 25.1463 1.33638 24.7808C1.17132 24.4442 1.07437 24.0805 1.05069 23.709C1.01843 23.301 1 22.7126 1 21.9438V3.96687C1 2.98129 1.22118 2.23915 1.66355 1.74045C2.10591 1.24175 2.70904 0.995353 3.47293 1.00127C3.81429 0.990298 4.15405 1.0507 4.46881 1.17831C4.78357 1.30592 5.06583 1.49771 5.29615 1.74045C5.76206 2.23324 5.99451 2.97834 5.99349 3.97574V12.4512L11.907 6.40322C12.1096 6.1942 12.3541 6.02692 12.6258 5.9115C12.8975 5.79609 13.1907 5.73494 13.4877 5.73176C13.7846 5.72858 14.0792 5.78344 14.3535 5.89301C14.6278 6.00258 14.8761 6.16459 15.0834 6.36922C15.5064 6.79009 15.7393 7.35489 15.7312 7.94039C15.7232 8.52589 15.4749 9.08456 15.0404 9.49449L13.5275 10.9004L20.5208 20.7257C20.9424 21.2909 21.3139 21.8893 21.6313 22.5145C21.8646 22.9777 21.9904 23.4841 22 23.9988Z" fill="black" stroke="black" stroke-width="0.7" stroke-miterlimit="10"/>
<path d="M89.7466 20.6663L89.7466 20.6663L89.7486 20.6696C90.2869 21.5514 90.761 22.4713 91.167 23.4219C91.3361 23.8313 91.4596 24.1698 91.5398 24.4396C91.6221 24.7161 91.6511 24.8955 91.65 24.9967C91.6451 25.2733 91.5603 25.5424 91.4059 25.7713L91.4058 25.7712L91.4009 25.7789C91.2302 26.0469 90.9916 26.2642 90.7096 26.4087C90.3853 26.573 90.026 26.6554 89.6629 26.6487L89.6538 26.6486L89.6447 26.6489C89.2306 26.6628 88.8225 26.5458 88.4781 26.3141C88.1363 26.0714 87.843 25.7663 87.6135 25.4145L87.6135 25.4145L87.6113 25.4112C87.3488 25.0188 86.9901 24.4354 86.5326 23.6529L86.5322 23.6521L84.5831 20.337C84.5827 20.3364 84.5824 20.3358 84.5821 20.3352C83.8804 19.1097 83.2424 18.1605 82.6676 17.4986C82.0911 16.8346 81.4884 16.3584 80.8555 16.0974L80.8556 16.0972L80.8438 16.0929C80.1167 15.8231 79.3446 15.6961 78.5696 15.7187H76.8699H76.5199V16.0687L76.5199 17.765L76.5199 17.7682C76.525 18.33 76.3075 18.8706 75.9158 19.2712C75.5249 19.6709 74.9924 19.8985 74.435 19.9048C73.8776 19.8985 73.3451 19.6709 72.9542 19.2712C72.5625 18.8706 72.345 18.33 72.3501 17.7682H72.3501V17.765V5.05681C72.3559 4.01791 72.5864 3.34949 72.9627 2.96475C73.3367 2.58225 73.9832 2.35066 74.991 2.35066L82.9137 2.35067L82.9163 2.35065C83.8384 2.34371 84.76 2.3924 85.6763 2.49645L85.6773 2.49656C86.3665 2.5728 87.0394 2.75776 87.6712 3.04465L87.6712 3.04471L87.6772 3.04731C88.3934 3.35646 89.0401 3.80774 89.5784 4.37412C90.1165 4.94035 90.5351 5.60994 90.8091 6.34274C91.0937 7.11564 91.2362 7.93401 91.2296 8.75804L91.2296 8.76141C91.2325 10.5279 90.7478 11.8995 89.8081 12.915C88.8598 13.9398 87.4013 14.6915 85.3902 15.141L84.506 15.3386L85.2934 15.7867C86.2001 16.3028 87.0059 16.9799 87.6715 17.7852L87.6714 17.7853L87.6761 17.7906C88.448 18.6871 89.1408 19.6492 89.7466 20.6663ZM84.2672 12.5255L84.2672 12.5256L84.2751 12.5236C85.1243 12.305 85.8039 11.9219 86.2826 11.355C86.7717 10.7757 86.9959 10.0031 86.9964 9.07932C87.0089 8.37446 86.8126 7.68162 86.4322 7.08866L86.4322 7.08865L86.4301 7.0855C86.0493 6.50574 85.5036 6.05393 84.8637 5.78877C84.5316 5.64624 84.0693 5.55025 83.4996 5.48799C82.9226 5.42494 82.2111 5.39415 81.3681 5.39415H76.8758H76.5258V5.74415V12.4955V12.8455H76.8758H81.2351C82.255 12.8642 83.2734 12.7567 84.2672 12.5255Z" fill="black" stroke="black" stroke-width="0.7"/>
<path d="M74 20C75.1046 20 76 18.8807 76 17.5C76 16.1193 75.1046 15 74 15C72.8954 15 72 16.1193 72 17.5C72 18.8807 72.8954 20 74 20Z" fill="black"/>
<path d="M51 24.9195C51 20.5615 52.3815 18.2614 55.8324 17.8082H56.1167V14.141C56.1167 9.84316 59.1682 6 63.7718 6C64.4159 6.01091 65.0553 6.1161 65.6707 6.31244C65.9216 6.39167 66.1537 6.52426 66.352 6.70169C66.5502 6.87911 66.7103 7.09742 66.8218 7.34257C66.9334 7.58772 66.9939 7.85426 66.9996 8.12502C67.0052 8.39578 66.9559 8.66476 66.8546 8.91464C66.6905 9.34411 66.3785 9.69596 65.9786 9.90276C65.5786 10.1096 65.1188 10.1568 64.6872 10.0353C64.3641 9.93731 64.029 9.88791 63.6922 9.88863C61.62 9.88863 59.5705 11.8865 59.5705 14.5488V17.726H64.7739C65.0085 17.7283 65.2404 17.7783 65.4563 17.8731C65.6722 17.9679 65.8679 18.1057 66.0322 18.2785C66.1965 18.4514 66.3262 18.6559 66.4139 18.8805C66.5016 19.1051 66.5456 19.3453 66.5434 19.5875C66.5457 20.075 66.3608 20.5436 66.0292 20.8908C65.6975 21.2379 65.2462 21.4355 64.7739 21.4401H57.2736C55.4259 21.4401 54.4822 22.4669 54.4538 24.5557C54.4538 27.0978 55.3165 28.2786 57.2736 28.2786H60.7558C61.072 28.2798 61.3821 28.3687 61.6536 28.5359C61.9251 28.7031 62.1481 28.9425 62.2994 29.2291C62.9617 30.4701 62.1089 32 60.7558 32H57.2736C53.1007 32 51 29.6354 51 24.9195Z" fill="black" stroke="black" stroke-width="0.7" stroke-miterlimit="10"/>
<path d="M28.5 27C29.8807 27 31 25.8807 31 24.5C31 23.1193 29.8807 22 28.5 22C27.1193 22 26 23.1193 26 24.5C26 25.8807 27.1193 27 28.5 27Z" fill="black"/>
<path d="M43.7714 7.73487C43.1766 7.74073 42.6083 7.98088 42.1916 8.40259C41.7749 8.82429 41.5437 9.39306 41.5489 9.98395V18.1818L33.2125 5.41481L32.2434 3.93612C31.9829 3.51766 31.7298 3.11841 31.4871 2.73247C31.281 2.3959 31.0405 2.08125 30.7696 1.79351C30.5364 1.55218 30.2603 1.35568 29.9553 1.21386C29.6025 1.06345 29.2211 0.990807 28.8374 1.00093C28.2849 1.00029 27.7449 1.16463 27.2877 1.47263C26.8281 1.76247 26.4695 2.18581 26.2605 2.68515C26.0863 3.12876 26 3.7572 26 4.5483V17.1807C26 18.4465 27.0197 19.3514 28.2717 19.3514C28.5685 19.355 28.8631 19.2997 29.1382 19.1888C29.4133 19.0779 29.6634 18.9136 29.8738 18.7056C30.0842 18.4975 30.2508 18.2499 30.3637 17.9771C30.4766 17.7044 30.5336 17.412 30.5314 17.1171V9.03168L39.6121 23.1147C39.8732 23.4992 40.1342 23.8757 40.3952 24.2444C40.6403 24.5962 40.9245 24.9196 41.2422 25.2085C41.5254 25.4704 41.8571 25.6753 42.2188 25.8118C42.5962 25.942 42.9938 26.0056 43.3933 25.9996C45.132 25.9996 46.0009 24.9394 45.9999 22.819V9.98395C46.0025 9.69088 45.9468 9.40017 45.8362 9.12847C45.7255 8.85677 45.562 8.6094 45.3551 8.40051C45.1481 8.19162 44.9017 8.02532 44.6299 7.9111C44.3582 7.79688 44.0665 7.737 43.7714 7.73487Z" fill="black" stroke="black" stroke-width="0.7" stroke-miterlimit="10"/>
</svg>
